<svg width="128" height="72" viewBox="0 0 128 72" fill="none" xmlns="http://www.w3.org/2000/svg">
<path d="M42.2266 13.3906C43.1953 13.3906 44.1797 13.4922 45.1797 13.6953C46.1797 13.8828 47.0703 14.1406 47.8516 14.4688C49.2266 16.875 50.4766 19.3281 51.6016 21.8281C52.7422 24.3125 53.7578 26.875 54.6484 29.5156C55.2578 29.5938 55.875 29.6797 56.5 29.7734C57.125 29.8516 57.7578 29.9375 58.3984 30.0312V36.0312L56.3828 35.4688C56.9453 37.7969 57.4219 40.1719 57.8125 42.5938C58.2031 45.0156 58.4922 47.4844 58.6797 50H53.1016C52.8672 47.3125 52.4766 44.6562 51.9297 42.0312C51.3828 39.4062 50.7578 36.8906 50.0547 34.4844C48.5391 34.3594 47.0938 34.2656 45.7188 34.2031C44.3594 34.1406 43.1953 34.1094 42.2266 34.1094C40.9297 34.1094 39.6406 34.1328 38.3594 34.1797C37.0781 34.2266 35.7891 34.3125 34.4922 34.4375C33.7891 36.8438 33.1562 39.3594 32.5938 41.9844C32.0469 44.6094 31.6641 47.2812 31.4453 50H25.8672C26.0391 47.4844 26.3125 45.0234 26.6875 42.6172C27.0781 40.2109 27.5547 37.8438 28.1172 35.5156L26.2891 36.0312V30.0312L29.8984 29.5156C30.7734 26.875 31.7734 24.3125 32.8984 21.8281C34.0391 19.3281 35.3047 16.875 36.6953 14.4688C37.4766 14.1406 38.3594 13.8828 39.3438 13.6953C40.3281 13.4922 41.2891 13.3906 42.2266 13.3906ZM42.2266 28.8125C43.1641 28.8125 44.1328 28.8281 45.1328 28.8594C46.1328 28.875 47.1641 28.9219 48.2266 29C47.4297 26.8281 46.6406 24.9453 45.8594 23.3516C45.0938 21.7422 44.4297 20.5 43.8672 19.625C43.5859 19.5 43.3203 19.4141 43.0703 19.3672C42.8203 19.3203 42.5391 19.2969 42.2266 19.2969C41.7266 19.2969 41.2109 19.4062 40.6797 19.625C40.1172 20.5 39.4453 21.7422 38.6641 23.3516C37.8828 24.9453 37.1016 26.8281 36.3203 29C37.3516 28.9219 38.3594 28.875 39.3438 28.8594C40.3438 28.8281 41.3047 28.8125 42.2266 28.8125ZM75.8828 29.4219H91.6328V14.7031C92.9766 14.75 94.2422 14.8281 95.4297 14.9375C96.6172 15.0469 97.6719 15.1641 98.5938 15.2891C99.6562 15.4297 100.648 15.5781 101.57 15.7344V21.7344C100.961 21.5469 100.289 21.375 99.5547 21.2188C98.8203 21.0469 98.0547 20.8906 97.2578 20.75V43.9531C98.9766 43.6719 100.414 43.3438 101.57 42.9688V48.9219C100.445 49.1094 99.4141 49.2656 98.4766 49.3906C97.5391 49.5156 96.6719 49.6172 95.875 49.6953C95.0781 49.7734 94.3281 49.8359 93.625 49.8828C92.9375 49.9297 92.2734 49.9688 91.6328 50V35.0938H75.8828V50C75.2422 49.9688 74.5703 49.9297 73.8672 49.8828C73.1797 49.8359 72.4375 49.7734 71.6406 49.6953C70.8438 49.6172 69.9766 49.5156 69.0391 49.3906C68.1016 49.2656 67.0703 49.1094 65.9453 48.9219V42.9688C66.5547 43.1562 67.2109 43.3359 67.9141 43.5078C68.6328 43.6641 69.4141 43.8125 70.2578 43.9531V20.75C68.6328 21.0312 67.1953 21.3594 65.9453 21.7344V15.7344C66.8359 15.5781 67.8203 15.4297 68.8984 15.2891C69.8047 15.1641 70.8594 15.0469 72.0625 14.9375C73.2656 14.8281 74.5391 14.75 75.8828 14.7031V29.4219Z" fill="black"/>
<path d="M7.88184 56.2715C8.24512 56.2715 8.61426 56.3096 8.98926 56.3857C9.36426 56.4561 9.69824 56.5527 9.99121 56.6758C10.5068 57.5781 10.9756 58.498 11.3975 59.4355C11.8252 60.3672 12.2061 61.3281 12.54 62.3184C12.7686 62.3477 13 62.3799 13.2344 62.415C13.4688 62.4443 13.7061 62.4766 13.9463 62.5117V64.7617L13.1904 64.5508C13.4014 65.4238 13.5801 66.3145 13.7266 67.2227C13.873 68.1309 13.9814 69.0566 14.0518 70H11.96C11.8721 68.9922 11.7256 67.9961 11.5205 67.0117C11.3154 66.0273 11.0811 65.084 10.8174 64.1816C10.249 64.1348 9.70703 64.0996 9.19141 64.0762C8.68164 64.0527 8.24512 64.041 7.88184 64.041C7.39551 64.041 6.91211 64.0498 6.43164 64.0674C5.95117 64.085 5.46777 64.1172 4.98145 64.1641C4.71777 65.0664 4.48047 66.0098 4.26953 66.9941C4.06445 67.9785 3.9209 68.9805 3.83887 70H1.74707C1.81152 69.0566 1.91406 68.1338 2.05469 67.2314C2.20117 66.3291 2.37988 65.4414 2.59082 64.5684L1.90527 64.7617V62.5117L3.25879 62.3184C3.58691 61.3281 3.96191 60.3672 4.38379 59.4355C4.81152 58.498 5.28613 57.5781 5.80762 56.6758C6.10059 56.5527 6.43164 56.4561 6.80078 56.3857C7.16992 56.3096 7.53027 56.2715 7.88184 56.2715ZM7.88184 62.0547C8.2334 62.0547 8.59668 62.0605 8.97168 62.0723C9.34668 62.0781 9.7334 62.0957 10.1318 62.125C9.83301 61.3105 9.53711 60.6045 9.24414 60.0068C8.95703 59.4033 8.70801 58.9375 8.49707 58.6094C8.3916 58.5625 8.29199 58.5303 8.19824 58.5127C8.10449 58.4951 7.99902 58.4863 7.88184 58.4863C7.69434 58.4863 7.50098 58.5273 7.30176 58.6094C7.09082 58.9375 6.83887 59.4033 6.5459 60.0068C6.25293 60.6045 5.95996 61.3105 5.66699 62.125C6.05371 62.0957 6.43164 62.0781 6.80078 62.0723C7.17578 62.0605 7.53613 62.0547 7.88184 62.0547ZM24.5283 59.9805C24.5283 60.5898 24.5078 61.2256 24.4668 61.8877C24.4258 62.5439 24.3467 63.2207 24.2295 63.918H22.1025C22.1553 63.7188 22.2051 63.502 22.252 63.2676C22.2871 63.0684 22.3193 62.8369 22.3486 62.5732C22.3838 62.3037 22.4014 62.0195 22.4014 61.7207C21.8857 61.7324 21.458 61.7822 21.1182 61.8701C20.7842 61.9521 20.5059 62.0518 20.2832 62.1689C20.0605 62.2803 19.8789 62.3945 19.7383 62.5117C19.5977 62.6289 19.4717 62.7227 19.3604 62.793V70H17.1104V62.7402C17.0869 62.5527 17.0312 62.3945 16.9434 62.2656C16.8613 62.1367 16.7734 62.0312 16.6797 61.9492C16.5742 61.8496 16.4541 61.7676 16.3193 61.7031L17.251 59.9805C17.4678 60.0566 17.6816 60.1592 17.8926 60.2881C18.0742 60.3994 18.2646 60.543 18.4639 60.7188C18.6689 60.8887 18.8506 61.0996 19.0088 61.3516C19.3076 61.1465 19.583 60.9736 19.835 60.833C20.0869 60.6865 20.3301 60.5635 20.5645 60.4639C20.8047 60.3643 21.0508 60.2881 21.3027 60.2354C21.5605 60.1768 21.8418 60.1299 22.1465 60.0947C22.457 60.0596 22.8027 60.0361 23.1836 60.0244C23.5703 60.0068 24.0186 59.9922 24.5283 59.9805ZM32.2979 59.9805C32.8135 59.9805 33.3525 60.0391 33.915 60.1562C34.4834 60.2734 35.0342 60.4258 35.5674 60.6133V56.623H37.8701V69.3145C37.5596 69.4082 37.1875 69.4961 36.7539 69.5781C36.3262 69.6602 35.8662 69.7334 35.374 69.7979C34.8818 69.8564 34.3691 69.9062 33.8359 69.9473C33.3086 69.9824 32.7959 70 32.2979 70C31.3955 70 30.5898 69.9385 29.8809 69.8154C29.1719 69.6865 28.5713 69.4902 28.0791 69.2266C27.5869 68.9629 27.2119 68.6289 26.9541 68.2246C26.6963 67.8203 26.5674 67.3398 26.5674 66.7832V63.1973C26.5674 62.6406 26.6963 62.1602 26.9541 61.7559C27.2119 61.3516 27.5869 61.0176 28.0791 60.7539C28.5713 60.4902 29.1719 60.2969 29.8809 60.1738C30.5898 60.0449 31.3955 59.9805 32.2979 59.9805ZM32.9307 68.3652C33.165 68.3652 33.4023 68.3535 33.6426 68.3301C33.8887 68.3066 34.126 68.2744 34.3545 68.2334C34.5889 68.1924 34.8086 68.1455 35.0137 68.0928C35.2246 68.04 35.4092 67.9844 35.5674 67.9258V62.4062C35.1631 62.2129 34.7471 62.0547 34.3193 61.9316C33.8975 61.8027 33.4346 61.7383 32.9307 61.7383C32.5674 61.7383 32.2129 61.7471 31.8672 61.7646C31.5273 61.7764 31.208 61.8086 30.9092 61.8613C30.6104 61.9082 30.335 61.9785 30.083 62.0723C29.8311 62.1602 29.6143 62.2803 29.4326 62.4326C29.2568 62.585 29.1191 62.7725 29.0195 62.9951C28.9199 63.2178 28.8701 63.4844 28.8701 63.7949V66.3789C28.8701 66.8535 28.9785 67.2256 29.1953 67.4951C29.418 67.7588 29.7139 67.9551 30.083 68.084C30.4521 68.2129 30.8828 68.292 31.375 68.3213C31.8672 68.3506 32.3857 68.3652 32.9307 68.3652ZM46.7822 59.9805C47.0811 59.9805 47.4414 59.9951 47.8633 60.0244C48.2852 60.0537 48.7217 60.1064 49.1729 60.1826C49.6299 60.2529 50.0811 60.3555 50.5264 60.4902C50.9717 60.6191 51.3701 60.7861 51.7217 60.9912C52.0791 61.1963 52.3662 61.4453 52.583 61.7383C52.8057 62.0254 52.917 62.3652 52.917 62.7578V65.7285H42.8447V67.9785C43.5537 68.0781 44.2363 68.1484 44.8926 68.1895C45.5488 68.2246 46.1787 68.2422 46.7822 68.2422C47.7021 68.2422 48.5342 68.207 49.2783 68.1367C50.0283 68.0664 50.6758 67.9873 51.2207 67.8994C51.8477 67.7998 52.4131 67.6855 52.917 67.5566V69.5078C51.8037 69.6836 50.7285 69.8096 49.6914 69.8857C48.6602 69.9619 47.6904 70 46.7822 70C45.8682 70 45.0391 69.9766 44.2949 69.9297C43.5508 69.877 42.9121 69.8184 42.3789 69.7539C41.7578 69.6836 41.1982 69.6016 40.7002 69.5078V62.7578C40.7002 62.3652 40.7969 62.0254 40.9902 61.7383C41.1836 61.4453 41.4414 61.1963 41.7637 60.9912C42.0859 60.7861 42.4551 60.6191 42.8711 60.4902C43.293 60.3555 43.7295 60.2529 44.1807 60.1826C44.6318 60.1064 45.0801 60.0537 45.5254 60.0244C45.9766 59.9951 46.3955 59.9805 46.7822 59.9805ZM42.8447 64.3223H50.7373V63.3027C50.7373 63.0625 50.6787 62.8574 50.5615 62.6875C50.4443 62.5117 50.2861 62.3652 50.0869 62.248C49.8936 62.1309 49.665 62.0371 49.4014 61.9668C49.1436 61.8906 48.874 61.835 48.5928 61.7998C48.3115 61.7588 48.0273 61.7324 47.7402 61.7207C47.459 61.709 47.1924 61.7031 46.9404 61.7031C46.6768 61.7031 46.3926 61.709 46.0879 61.7207C45.7891 61.7324 45.4873 61.7588 45.1826 61.7998C44.8779 61.8408 44.585 61.8994 44.3037 61.9756C44.0225 62.0459 43.7734 62.1426 43.5566 62.2656C43.3398 62.3828 43.167 62.5293 43.0381 62.7051C42.9092 62.875 42.8447 63.0801 42.8447 63.3203V64.3223ZM55.9053 62.7402C55.8818 62.5527 55.8262 62.3945 55.7383 62.2656C55.6562 62.1367 55.5654 62.0312 55.4658 61.9492C55.3545 61.8496 55.2314 61.7676 55.0967 61.7031L56.0811 59.9805C56.2979 60.0566 56.5146 60.1592 56.7314 60.2881C56.9131 60.3994 57.1035 60.543 57.3027 60.7188C57.5078 60.8887 57.6865 61.0996 57.8389 61.3516C58.1318 61.1641 58.4307 60.9883 58.7354 60.8242C59.0459 60.6543 59.3682 60.5078 59.7021 60.3848C60.042 60.2617 60.3965 60.165 60.7656 60.0947C61.1406 60.0186 61.542 59.9805 61.9697 59.9805C62.8721 59.9805 63.6455 60.0566 64.29 60.209C64.9404 60.3555 65.4707 60.5781 65.8809 60.877C66.2969 61.1699 66.6016 61.5361 66.7949 61.9756C66.9883 62.415 67.085 62.9277 67.085 63.5137V70H64.7822V64.0586C64.7822 63.7305 64.7383 63.4492 64.6504 63.2148C64.5625 62.9746 64.4424 62.7725 64.29 62.6084C64.1436 62.4385 63.9707 62.3008 63.7715 62.1953C63.5723 62.0898 63.3643 62.0107 63.1475 61.958C62.9365 61.8994 62.7197 61.8613 62.4971 61.8438C62.2744 61.8203 62.0635 61.8086 61.8643 61.8086C61.4893 61.8086 61.1318 61.835 60.792 61.8877C60.4521 61.9404 60.1299 62.0137 59.8252 62.1074C59.5205 62.1953 59.2334 62.3008 58.9639 62.4238C58.6943 62.5469 58.4424 62.6758 58.208 62.8105V70H55.9053V62.7402ZM81.7275 62.2832H87.6338V56.7637C88.1377 56.7812 88.6123 56.8105 89.0576 56.8516C89.5029 56.8926 89.8984 56.9365 90.2441 56.9834C90.6426 57.0361 91.0146 57.0918 91.3604 57.1504V59.4004C91.1318 59.3301 90.8799 59.2656 90.6045 59.207C90.3291 59.1426 90.042 59.084 89.7432 59.0312V67.7324C90.3877 67.627 90.9268 67.5039 91.3604 67.3633V69.5957C90.9385 69.666 90.5518 69.7246 90.2002 69.7715C89.8486 69.8184 89.5234 69.8564 89.2246 69.8857C88.9258 69.915 88.6445 69.9385 88.3809 69.9561C88.123 69.9736 87.874 69.9883 87.6338 70V64.4102H81.7275V70C81.4873 69.9883 81.2354 69.9736 80.9717 69.9561C80.7139 69.9385 80.4355 69.915 80.1367 69.8857C79.8379 69.8564 79.5127 69.8184 79.1611 69.7715C78.8096 69.7246 78.4229 69.666 78.001 69.5957V67.3633C78.2295 67.4336 78.4756 67.501 78.7393 67.5654C79.0088 67.624 79.3018 67.6797 79.6182 67.7324V59.0312C79.0088 59.1367 78.4697 59.2598 78.001 59.4004V57.1504C78.335 57.0918 78.7041 57.0361 79.1084 56.9834C79.4482 56.9365 79.8438 56.8926 80.2949 56.8516C80.7461 56.8105 81.2236 56.7812 81.7275 56.7637V62.2832ZM97.0029 70H94.7705V59.9805H97.0029V70ZM95.8955 56.5C96.3291 56.5 96.6719 56.5732 96.9238 56.7197C97.1758 56.8604 97.3018 57.0859 97.3018 57.3965V57.8359C97.3018 58.1172 97.1758 58.3193 96.9238 58.4424C96.6719 58.5654 96.3291 58.627 95.8955 58.627C95.4795 58.627 95.1426 58.5654 94.8848 58.4424C94.6328 58.3193 94.5068 58.1172 94.5068 57.8359V57.3965C94.5068 57.0859 94.6328 56.8604 94.8848 56.7197C95.1426 56.5732 95.4795 56.5 95.8955 56.5ZM105.845 59.9805C106.36 59.9805 106.899 60.0391 107.462 60.1562C108.03 60.2734 108.581 60.4258 109.114 60.6133V56.623H111.417V69.3145C111.106 69.4082 110.734 69.4961 110.301 69.5781C109.873 69.6602 109.413 69.7334 108.921 69.7979C108.429 69.8564 107.916 69.9062 107.383 69.9473C106.855 69.9824 106.343 70 105.845 70C104.942 70 104.137 69.9385 103.428 69.8154C102.719 69.6865 102.118 69.4902 101.626 69.2266C101.134 68.9629 100.759 68.6289 100.501 68.2246C100.243 67.8203 100.114 67.3398 100.114 66.7832V63.1973C100.114 62.6406 100.243 62.1602 100.501 61.7559C100.759 61.3516 101.134 61.0176 101.626 60.7539C102.118 60.4902 102.719 60.2969 103.428 60.1738C104.137 60.0449 104.942 59.9805 105.845 59.9805ZM106.478 68.3652C106.712 68.3652 106.949 68.3535 107.189 68.3301C107.436 68.3066 107.673 68.2744 107.901 68.2334C108.136 68.1924 108.355 68.1455 108.561 68.0928C108.771 68.04 108.956 67.9844 109.114 67.9258V62.4062C108.71 62.2129 108.294 62.0547 107.866 61.9316C107.444 61.8027 106.981 61.7383 106.478 61.7383C106.114 61.7383 105.76 61.7471 105.414 61.7646C105.074 61.7764 104.755 61.8086 104.456 61.8613C104.157 61.9082 103.882 61.9785 103.63 62.0723C103.378 62.1602 103.161 62.2803 102.979 62.4326C102.804 62.585 102.666 62.7725 102.566 62.9951C102.467 63.2178 102.417 63.4844 102.417 63.7949V66.3789C102.417 66.8535 102.525 67.2256 102.742 67.4951C102.965 67.7588 103.261 67.9551 103.63 68.084C103.999 68.2129 104.43 68.292 104.922 68.3213C105.414 68.3506 105.933 68.3652 106.478 68.3652ZM120.329 59.9805C120.628 59.9805 120.988 59.9951 121.41 60.0244C121.832 60.0537 122.269 60.1064 122.72 60.1826C123.177 60.2529 123.628 60.3555 124.073 60.4902C124.519 60.6191 124.917 60.7861 125.269 60.9912C125.626 61.1963 125.913 61.4453 126.13 61.7383C126.353 62.0254 126.464 62.3652 126.464 62.7578V65.7285H116.392V67.9785C117.101 68.0781 117.783 68.1484 118.439 68.1895C119.096 68.2246 119.726 68.2422 120.329 68.2422C121.249 68.2422 122.081 68.207 122.825 68.1367C123.575 68.0664 124.223 67.9873 124.768 67.8994C125.395 67.7998 125.96 67.6855 126.464 67.5566V69.5078C125.351 69.6836 124.275 69.8096 123.238 69.8857C122.207 69.9619 121.237 70 120.329 70C119.415 70 118.586 69.9766 117.842 69.9297C117.098 69.877 116.459 69.8184 115.926 69.7539C115.305 69.6836 114.745 69.6016 114.247 69.5078V62.7578C114.247 62.3652 114.344 62.0254 114.537 61.7383C114.73 61.4453 114.988 61.1963 115.311 60.9912C115.633 60.7861 116.002 60.6191 116.418 60.4902C116.84 60.3555 117.276 60.2529 117.728 60.1826C118.179 60.1064 118.627 60.0537 119.072 60.0244C119.523 59.9951 119.942 59.9805 120.329 59.9805ZM116.392 64.3223H124.284V63.3027C124.284 63.0625 124.226 62.8574 124.108 62.6875C123.991 62.5117 123.833 62.3652 123.634 62.248C123.44 62.1309 123.212 62.0371 122.948 61.9668C122.69 61.8906 122.421 61.835 122.14 61.7998C121.858 61.7588 121.574 61.7324 121.287 61.7207C121.006 61.709 120.739 61.7031 120.487 61.7031C120.224 61.7031 119.939 61.709 119.635 61.7207C119.336 61.7324 119.034 61.7588 118.729 61.7998C118.425 61.8408 118.132 61.8994 117.851 61.9756C117.569 62.0459 117.32 62.1426 117.104 62.2656C116.887 62.3828 116.714 62.5293 116.585 62.7051C116.456 62.875 116.392 63.0801 116.392 63.3203V64.3223Z" fill="black"/>
</svg>
